<svg xmlns="http://www.w3.org/2000/svg"  viewBox="0 0 100 100" width="296px" height="296px"><path fill="#c7ede6" d="M87.215,56.71C88.35,54.555,89,52.105,89,49.5c0-6.621-4.159-12.257-10.001-14.478 C78.999,35.015,79,35.008,79,35c0-11.598-9.402-21-21-21c-9.784,0-17.981,6.701-20.313,15.757C36.211,29.272,34.638,29,33,29 c-7.692,0-14.023,5.793-14.89,13.252C12.906,43.353,9,47.969,9,53.5C9,59.851,14.149,65,20.5,65c0.177,0,0.352-0.012,0.526-0.022 C21.022,65.153,21,65.324,21,65.5C21,76.822,30.178,86,41.5,86c6.437,0,12.175-2.972,15.934-7.614C59.612,80.611,62.64,82,66,82 c4.65,0,8.674-2.65,10.666-6.518C77.718,75.817,78.837,76,80,76c6.075,0,11-4.925,11-11C91,61.689,89.53,58.727,87.215,56.71z"/><path fill="#fdfcef" d="M79.875,60.5c0,0,3.64,0,6.125,0s4.5-2.015,4.5-4.5c0-2.333-1.782-4.229-4.055-4.455 C86.467,51.364,86.5,51.187,86.5,51c0-2.485-2.015-4.5-4.5-4.5c-1.438,0-2.703,0.686-3.527,1.736 C78.333,45.6,76.171,43.5,73.5,43.5c-2.761,0-5,2.239-5,5c0,0.446,0.077,0.87,0.187,1.282C68.045,49.005,67.086,48.5,66,48.5 c-1.781,0-3.234,1.335-3.455,3.055C62.364,51.533,62.187,51.5,62,51.5c-2.485,0-4.5,2.015-4.5,4.5s2.015,4.5,4.5,4.5s9.5,0,9.5,0 h5.375V61h3V60.5z"/><path fill="#472b29" d="M73.5,43c-3.033,0-5.5,2.467-5.5,5.5c0,0.016,0,0.031,0,0.047C67.398,48.192,66.71,48,66,48 c-1.831,0-3.411,1.261-3.858,3.005C62.095,51.002,62.048,51,62,51c-2.757,0-5,2.243-5,5s2.243,5,5,5h14.875 c0.276,0,0.5-0.224,0.5-0.5s-0.224-0.5-0.5-0.5H62c-2.206,0-4-1.794-4-4s1.794-4,4-4c0.117,0,0.23,0.017,0.343,0.032l0.141,0.019 c0.021,0.003,0.041,0.004,0.062,0.004c0.246,0,0.462-0.185,0.495-0.437C63.232,50.125,64.504,49,66,49 c0.885,0,1.723,0.401,2.301,1.1c0.098,0.118,0.241,0.182,0.386,0.182c0.078,0,0.156-0.018,0.228-0.056 c0.209-0.107,0.314-0.346,0.254-0.573C69.054,49.218,69,48.852,69,48.5c0-2.481,2.019-4.5,4.5-4.5 c2.381,0,4.347,1.872,4.474,4.263c0.011,0.208,0.15,0.387,0.349,0.45c0.05,0.016,0.101,0.024,0.152,0.024 c0.15,0,0.296-0.069,0.392-0.192C79.638,47.563,80.779,47,82,47c2.206,0,4,1.794,4,4c0,0.117-0.017,0.23-0.032,0.343l-0.019,0.141 c-0.016,0.134,0.022,0.268,0.106,0.373c0.084,0.105,0.207,0.172,0.34,0.185C88.451,52.247,90,53.949,90,56c0,2.206-1.794,4-4,4 h-6.125c-0.276,0-0.5,0.224-0.5,0.5s0.224,0.5,0.5,0.5H86c2.757,0,5-2.243,5-5c0-2.397-1.689-4.413-4.003-4.877 C86.999,51.082,87,51.041,87,51c0-2.757-2.243-5-5-5c-1.176,0-2.293,0.416-3.183,1.164C78.219,44.76,76.055,43,73.5,43L73.5,43z"/><path fill="#472b29" d="M72 50c-1.403 0-2.609.999-2.913 2.341C68.72 52.119 68.301 52 67.875 52c-1.202 0-2.198.897-2.353 2.068C65.319 54.022 65.126 54 64.938 54c-1.529 0-2.811 1.2-2.918 2.732C62.01 56.87 62.114 56.99 62.251 57c.006 0 .012 0 .018 0 .13 0 .24-.101.249-.232.089-1.271 1.151-2.268 2.419-2.268.229 0 .47.042.738.127.022.007.045.01.067.01.055 0 .11-.02.156-.054C65.962 54.537 66 54.455 66 54.375c0-1.034.841-1.875 1.875-1.875.447 0 .885.168 1.231.473.047.041.106.063.165.063.032 0 .063-.006.093-.019.088-.035.148-.117.155-.212C69.623 51.512 70.712 50.5 72 50.5c.208 0 .425.034.682.107.023.007.047.01.07.01.109 0 .207-.073.239-.182.038-.133-.039-.271-.172-.309C72.517 50.04 72.256 50 72 50L72 50zM85.883 51.5c-1.326 0-2.508.897-2.874 2.182-.038.133.039.271.172.309C83.205 53.997 83.228 54 83.25 54c.109 0 .209-.072.24-.182C83.795 52.748 84.779 52 85.883 52c.117 0 .23.014.342.029.012.002.023.003.035.003.121 0 .229-.092.246-.217.019-.137-.077-.263-.214-.281C86.158 51.516 86.022 51.5 85.883 51.5L85.883 51.5z"/><path fill="#fff" d="M15.405 51H5.5C5.224 51 5 50.776 5 50.5S5.224 50 5.5 50h9.905c.276 0 .5.224.5.5S15.682 51 15.405 51zM18.5 51h-1c-.276 0-.5-.224-.5-.5s.224-.5.5-.5h1c.276 0 .5.224.5.5S18.777 51 18.5 51zM23.491 53H14.5c-.276 0-.5-.224-.5-.5s.224-.5.5-.5h8.991c.276 0 .5.224.5.5S23.767 53 23.491 53zM12.5 53h-1c-.276 0-.5-.224-.5-.5s.224-.5.5-.5h1c.276 0 .5.224.5.5S12.777 53 12.5 53zM9.5 53h-2C7.224 53 7 52.776 7 52.5S7.224 52 7.5 52h2c.276 0 .5.224.5.5S9.777 53 9.5 53zM15.5 55h-2c-.276 0-.5-.224-.5-.5s.224-.5.5-.5h2c.276 0 .5.224.5.5S15.776 55 15.5 55zM18.5 46c-.177 0-.823 0-1 0-.276 0-.5.224-.5.5 0 .276.224.5.5.5.177 0 .823 0 1 0 .276 0 .5-.224.5-.5C19 46.224 18.776 46 18.5 46zM18.5 48c-.177 0-4.823 0-5 0-.276 0-.5.224-.5.5 0 .276.224.5.5.5.177 0 4.823 0 5 0 .276 0 .5-.224.5-.5C19 48.224 18.776 48 18.5 48zM23.5 50c-.177 0-2.823 0-3 0-.276 0-.5.224-.5.5 0 .276.224.5.5.5.177 0 2.823 0 3 0 .276 0 .5-.224.5-.5C24 50.224 23.776 50 23.5 50z"/><g><path fill="#fff" d="M72.5 24h-10c-.276 0-.5-.224-.5-.5s.224-.5.5-.5h10c.276 0 .5.224.5.5S72.776 24 72.5 24zM76.5 24h-2c-.276 0-.5-.224-.5-.5s.224-.5.5-.5h2c.276 0 .5.224.5.5S76.776 24 76.5 24zM81.5 26h-10c-.276 0-.5-.224-.5-.5s.224-.5.5-.5h10c.276 0 .5.224.5.5S81.777 26 81.5 26zM69.5 26h-1c-.276 0-.5-.224-.5-.5s.224-.5.5-.5h1c.276 0 .5.224.5.5S69.776 26 69.5 26zM66.375 26H64.5c-.276 0-.5-.224-.5-.5s.224-.5.5-.5h1.875c.276 0 .5.224.5.5S66.651 26 66.375 26zM75.5 22h-5c-.276 0-.5-.224-.5-.5s.224-.5.5-.5h5c.276 0 .5.224.5.5S75.777 22 75.5 22zM72.5 28h-2c-.276 0-.5-.224-.5-.5s.224-.5.5-.5h2c.276 0 .5.224.5.5S72.776 28 72.5 28z"/></g><g><path fill="#ea5167" d="M37,71.3c-4.025,0-7.3-3.274-7.3-7.3V36c0-4.025,3.274-7.3,7.3-7.3h28c4.025,0,7.3,3.274,7.3,7.3 v28c0,4.025-3.274,7.3-7.3,7.3H37z"/><path fill="#472b29" d="M65,29.4c3.639,0,6.6,2.961,6.6,6.6v28c0,3.639-2.961,6.6-6.6,6.6H37c-3.639,0-6.6-2.961-6.6-6.6 V36c0-3.639,2.961-6.6,6.6-6.6H65 M65,28H37c-4.418,0-8,3.582-8,8v28c0,4.418,3.582,8,8,8h28c4.418,0,8-3.582,8-8V36 C73,31.582,69.418,28,65,28L65,28z"/></g><g><path fill="#472b29" d="M68.446,47.511c-0.276,0-0.5-0.224-0.5-0.5v-3.706c0-0.276,0.224-0.5,0.5-0.5s0.5,0.224,0.5,0.5 v3.706C68.946,47.287,68.722,47.511,68.446,47.511z"/></g><g><path fill="#472b29" d="M68.508,41.06c-0.276,0-0.5-0.224-0.5-0.5v-1.913c0-0.276,0.224-0.5,0.5-0.5s0.5,0.224,0.5,0.5 v1.913C69.008,40.836,68.785,41.06,68.508,41.06z"/></g><g><path fill="#472b29" d="M64.251,67.938H37.812c-2.619,0-4.749-2.131-4.749-4.749V36.749c0-2.618,2.13-4.749,4.749-4.749 h23.96c0.276,0,0.5,0.224,0.5,0.5s-0.224,0.5-0.5,0.5h-23.96c-2.067,0-3.749,1.682-3.749,3.749v26.439 c0,2.067,1.682,3.749,3.749,3.749h26.439c2.067,0,3.749-1.682,3.749-3.749V49.614c0-0.276,0.224-0.5,0.5-0.5s0.5,0.224,0.5,0.5 v13.574C69,65.807,66.87,67.938,64.251,67.938z"/></g><g><path fill="#fff" d="M58.636,48.156c0.279,0.006,0.455,0.009,0.531,0.009c0.418,0.021,0.845,0.034,1.251,0.045 c2.715,0.077,4.212,0.12,4.866,2.624c0.336,1.637,0.549,3.879,0.549,5.83c-0.02,0.407-0.034,0.842-0.048,1.28 c-0.111,3.536-0.216,6.877-3.562,7.143c-2.046,0.159-7.395,0.245-11.391,0.246l0,0c-3.995-0.001-9.344-0.087-11.391-0.245 c-3.344-0.266-3.45-3.607-3.561-7.143c-0.015-0.438-0.027-0.872-0.048-1.298c0-1.934,0.212-4.175,0.553-5.832 c0.65-2.486,2.145-2.528,4.862-2.605c0.406-0.011,0.833-0.024,1.275-0.046c0.004,0,0.248-0.003,0.506-0.008 c1.065-0.022,3.557-0.073,7.711-0.073c0,0,0.161,0.001,0.192,0.001c1.085,0,2.054,0.003,2.912,0.009 c0.482,0.003,0.93,0.007,1.344,0.011"/></g><g><path fill="#fff" d="M46.289 34.343L44.605 39.059 42.921 34.343 41.237 34.343 43.763 41.417 43.763 46.132 45.447 46.132 45.447 41.417 47.974 34.343zM57.237 37.29v6.526c0 0-.368.835-1.053.842-.616.006-.632-.333-.632-.526V37.29h-1.684v7.158c0 1.263.947 1.684 1.508 1.684 1.123 0 1.65-.842 1.86-1.158v1.053h1.684V37.29H57.237zM50.289 46.132c-1.393 0-2.526-1.157-2.526-2.579v-3.789c0-1.421 1.133-2.579 2.526-2.579s2.526 1.157 2.526 2.579v3.789C52.816 44.975 51.682 46.132 50.289 46.132zM50.289 38.764c-.465 0-.842.417-.842.93v3.93c0 .513.377.93.842.93.465 0 .842-.417.842-.93v-3.93C51.132 39.181 50.754 38.764 50.289 38.764z"/></g><g><path fill="#ea5167" d="M49.833 62.475h-1.743v-1.158c-.218.316-.762 1.157-1.925 1.158-.58 0-1.561-.421-1.561-1.684v-7.579h1.743v7.263c0 .194.016.532.654.526.708-.007 1.089-.842 1.089-.842v-6.947h1.743V62.475zM43.833 52.369L42.056 52.369 42.056 62.475 40.278 62.475 40.278 52.369 38.5 52.369 38.5 50.685 43.833 50.685zM56.738 55.367c0-.727-.238-1.219-.542-1.591-.301-.371-.746-.565-1.311-.565-.283 0-.566.076-.848.215-.283.136-.584.375-.784.678v-3.419H51.51v11.789h1.743v-1.158c.336.38.827 1.167 1.743 1.158 1.307 0 1.743-1.158 1.743-2.105V55.367zM54.996 59.968c0 .465-.39.823-.871.823-.481 0-.864-.179-.871-.421v-5.002c.008-.424.39-.842.871-.842.481 0 .871.37.871 1.213V59.968zM63.5 58.264V55.64c0-.84-.439-2.429-2.632-2.429-2.083 0-2.629 1.667-2.629 2.429v3.965c0 .861.244 1.527.709 2.014.469.488 1.119.723 1.954.723.911 0 1.605-.217 2.051-.686.47-.449.547-1.13.547-2.051v-.499h-1.754v.421c0 .508-.052.898-.175 1.037-.121.155-.346.223-.703.227-.322.003-.567-.083-.688-.276-.124-.176-.189-.479-.189-.948v-1.302H63.5zM59.991 55.738c.008-.452.393-.842.877-.842.484 0 .877.324.877.842v.842h-1.754V55.738z"/></g><g><path fill="#472b29" d="M58.636,48.406c-0.001,0-0.003,0-0.005,0l-0.068-0.001c-0.545-0.012-1.43-0.029-2.69-0.044 c-0.138-0.002-0.249-0.115-0.247-0.253c0.001-0.137,0.113-0.247,0.25-0.247c0.001,0,0.002,0,0.003,0 c1.262,0.015,2.148,0.032,2.694,0.044l0.068,0.001c0.138,0.003,0.248,0.117,0.245,0.255C58.883,48.298,58.772,48.406,58.636,48.406 z"/></g><g><path fill="#472b29" d="M50.833,65.583c-3.999-0.001-9.356-0.087-11.41-0.245c-3.569-0.284-3.683-3.894-3.792-7.385 l-0.004-0.136c-0.012-0.39-0.025-0.777-0.043-1.157c0-1.971,0.213-4.225,0.558-5.895c0.7-2.68,2.356-2.727,5.099-2.805 c0.405-0.012,0.83-0.024,1.271-0.046l0.514-0.009c0.95-0.02,3.473-0.073,7.716-0.073l0.192,0.001c1.273,0,2.388,0.005,3.352,0.012 c0.138,0.001,0.249,0.113,0.248,0.252c-0.001,0.138-0.093,0.266-0.252,0.248c-0.963-0.007-2.076-0.012-3.348-0.012l-0.193-0.001 c-4.236,0-6.755,0.053-7.704,0.073c-0.261,0.005-0.508,0.009-0.512,0.009c-0.432,0.021-0.86,0.034-1.268,0.046 c-2.679,0.076-4.024,0.114-4.627,2.419c-0.334,1.626-0.544,3.842-0.544,5.769c0.018,0.37,0.031,0.76,0.043,1.153l0.004,0.136 c0.112,3.57,0.208,6.653,3.331,6.902c2.04,0.156,7.381,0.242,11.371,0.243c3.993-0.001,9.335-0.087,11.372-0.244 c3.122-0.249,3.219-3.332,3.331-6.901L65.54,57.8c0.013-0.394,0.026-0.781,0.044-1.147c0-1.919-0.209-4.134-0.545-5.767 c-0.604-2.311-1.949-2.349-4.628-2.425c-0.138-0.004-0.247-0.119-0.243-0.257s0.132-0.233,0.257-0.243 c2.743,0.078,4.399,0.125,5.101,2.811c0.345,1.677,0.558,3.93,0.558,5.894c-0.018,0.376-0.031,0.761-0.044,1.151l-0.004,0.138 c-0.109,3.489-0.223,7.099-3.792,7.383C60.194,65.495,54.835,65.582,50.833,65.583z"/></g><g><path fill="#fdfcef" d="M36.5,73.5c0,0,1.567,0,3.5,0s3.5-1.567,3.5-3.5c0-1.781-1.335-3.234-3.055-3.455 C40.473,66.366,40.5,66.187,40.5,66c0-1.933-1.567-3.5-3.5-3.5c-1.032,0-1.95,0.455-2.59,1.165 c-0.384-1.808-1.987-3.165-3.91-3.165c-2.209,0-4,1.791-4,4c0,0.191,0.03,0.374,0.056,0.558C26.128,64.714,25.592,64.5,25,64.5 c-1.228,0-2.245,0.887-2.455,2.055C22.366,66.527,22.187,66.5,22,66.5c-1.933,0-3.5,1.567-3.5,3.5s1.567,3.5,3.5,3.5s7.5,0,7.5,0 V74h7V73.5z"/><path fill="#472b29" d="M38.25 69C38.112 69 38 68.888 38 68.75c0-1.223.995-2.218 2.218-2.218.034.009.737-.001 1.244.136.133.036.212.173.176.306-.036.134-.173.213-.306.176-.444-.12-1.1-.12-1.113-.118-.948 0-1.719.771-1.719 1.718C38.5 68.888 38.388 69 38.25 69zM31.5 73A.5.5 0 1 0 31.5 74 .5.5 0 1 0 31.5 73z"/><path fill="#472b29" d="M40,74h-3.5c-0.276,0-0.5-0.224-0.5-0.5s0.224-0.5,0.5-0.5H40c1.654,0,3-1.346,3-3 c0-1.496-1.125-2.768-2.618-2.959c-0.134-0.018-0.255-0.088-0.336-0.196s-0.115-0.244-0.094-0.377C39.975,66.314,40,66.16,40,66 c0-1.654-1.346-3-3-3c-0.85,0-1.638,0.355-2.219,1c-0.125,0.139-0.321,0.198-0.5,0.148c-0.182-0.049-0.321-0.195-0.36-0.379 C33.58,62.165,32.141,61,30.5,61c-1.93,0-3.5,1.57-3.5,3.5c0,0.143,0.021,0.28,0.041,0.418c0.029,0.203-0.063,0.438-0.242,0.54 c-0.179,0.102-0.396,0.118-0.556-0.01C25.878,65.155,25.449,65,25,65c-0.966,0-1.792,0.691-1.963,1.644 c-0.048,0.267-0.296,0.446-0.569,0.405C22.314,67.025,22.16,67,22,67c-1.654,0-3,1.346-3,3s1.346,3,3,3h7.5 c0.276,0,0.5,0.224,0.5,0.5S29.776,74,29.5,74H22c-2.206,0-4-1.794-4-4s1.794-4,4-4c0.059,0,0.116,0.002,0.174,0.006 C22.588,64.82,23.711,64,25,64c0.349,0,0.689,0.061,1.011,0.18C26.176,61.847,28.126,60,30.5,60c1.831,0,3.466,1.127,4.153,2.774 C35.333,62.276,36.155,62,37,62c2.206,0,4,1.794,4,4c0,0.048-0.001,0.095-0.004,0.142C42.739,66.59,44,68.169,44,70 C44,72.206,42.206,74,40,74z"/><path fill="#472b29" d="M34.5,73c-0.159,0-0.841,0-1,0c-0.276,0-0.5,0.224-0.5,0.5c0,0.276,0.224,0.5,0.5,0.5 c0.159,0,0.841,0,1,0c0.276,0,0.5-0.224,0.5-0.5C35,73.224,34.776,73,34.5,73z"/></g></svg>